<?xml version="1.0" standalone="no"?>
<!DOCTYPE svg PUBLIC "-//W3C//DTD SVG 20010904//EN"
 "http://www.w3.org/TR/2001/REC-SVG-20010904/DTD/svg10.dtd">
<svg version="1.0" xmlns="http://www.w3.org/2000/svg"
 width="700.000000pt" height="700.000000pt" viewBox="0 0 700.000000 700.000000"
 preserveAspectRatio="xMidYMid meet">
<metadata>
Created by potrace 1.11, written by Peter Selinger 2001-2013
</metadata>
<g transform="translate(0.000000,700.000000) scale(0.100000,-0.100000)"
fill="#000000" stroke="none">
<path d="M3327 6995 c-1 -2 -47 -5 -102 -9 -55 -3 -111 -8 -125 -10 -14 -3
-47 -7 -75 -11 -65 -8 -228 -36 -235 -40 -3 -2 -24 -6 -46 -9 -22 -4 -71 -15
-108 -26 -36 -10 -70 -20 -74 -21 -4 -1 -11 -3 -17 -4 -171 -45 -415 -141
-615 -242 -247 -125 -421 -237 -633 -406 -135 -108 -411 -384 -521 -522 -304
-381 -523 -811 -655 -1285 -27 -100 -79 -359 -87 -440 -3 -36 -8 -67 -9 -70
-9 -15 -19 -247 -19 -415 1 -202 7 -299 30 -470 20 -156 96 -479 145 -616 16
-46 31 -91 33 -100 12 -49 108 -264 176 -395 174 -338 365 -599 635 -870 160
-160 205 -199 375 -328 363 -273 768 -471 1200 -585 63 -17 124 -32 135 -34
11 -2 31 -7 45 -10 25 -6 118 -23 175 -32 17 -3 53 -8 80 -11 28 -3 55 -7 62
-9 74 -24 656 -24 793 -1 14 3 48 7 75 11 91 11 222 33 244 41 8 2 30 7 50 10
20 3 92 21 161 40 524 146 976 389 1390 749 79 68 255 245 318 319 37 43 72
84 78 90 39 40 264 356 264 370 0 3 13 24 29 48 40 59 162 295 206 398 110
257 173 463 240 790 2 8 8 51 14 95 7 44 14 94 16 110 24 168 25 657 1 795 -3
14 -7 50 -11 81 -5 54 -8 71 -20 129 -2 14 -7 41 -10 60 -3 19 -15 73 -26 120
-11 47 -22 92 -24 101 -19 88 -94 312 -160 473 -84 207 -283 560 -399 708 -12
14 -32 41 -46 59 -485 644 -1220 1115 -2020 1294 -101 23 -100 22 -161 30 -30
4 -56 8 -59 10 -3 2 -30 6 -60 10 -30 4 -66 8 -80 10 -106 14 -561 29 -573 20z"/>
</g>
</svg>
